<?xml version="1.0" encoding="utf-8"?>
<!-- Generator: Adobe Illustrator 23.0.1, SVG Export Plug-In . SVG Version: 6.00 Build 0)  -->
<svg version="1.1" id="Layer_1" xmlns="http://www.w3.org/2000/svg" xmlns:xlink="http://www.w3.org/1999/xlink" x="0px" y="0px"
	 viewBox="0 0 1366 768" style="enable-background:new 0 0 1366 768;" xml:space="preserve">
<style type="text/css">
	.st0{fill:#FECA03;}
	.st1{fill:#FEB904;}
	.st2{fill:#FEC103;}
	.st3{fill:#FEC003;}
	.st4{fill:#FEB405;}
	.st5{fill:#FBAD05;}
	.st6{fill:#F7A604;}
	.st7{fill:#F39D03;}
	.st8{fill:#F09802;}
	.st9{fill:#F5A103;}
	.st10{fill:#E98B03;}
	.st11{fill:#FEC701;}
	.st12{fill:#EC9001;}
	.st13{fill:#EF9502;}
</style>
<g>
	<path class="st0" d="M524.08,603.45c3.15-12.47,6.3-24.94,9.67-38.26c7.98,7.67,15.38,14.61,22.56,21.77
		c2.7,2.7,5.72,4.41,9.36,5.41c8.76,2.4,17.47,5.01,26.23,7.43c2.37,0.65,3.62,1.19,1.22,3.51c-9.18,8.87-18.27,17.83-27.4,26.76
		c-0.01-1.99-1.74-2.64-3-3.4c-6.39-3.84-12.96-7.36-19.29-11.28C536.99,611.39,529.91,608.42,524.08,603.45z"/>
	<path class="st0" d="M897.39,537.78c-11.08-2.78-22.15-5.56-34.05-8.54c7.79-8.09,14.97-15.65,22.28-23.09
		c2.18-2.22,3.68-4.63,4.51-7.67c2.77-10.09,5.75-20.11,8.88-30.94c8.64,8.5,16.94,16.48,24.63,25.08
		c-5.54,6.43-9.03,14.16-13.15,21.44C906.05,521.91,900.71,529.29,897.39,537.78z"/>
	<path class="st1" d="M524.08,603.45c5.83,4.97,12.91,7.94,19.35,11.93c6.33,3.92,12.91,7.44,19.29,11.28c1.26,0.75,2.98,1.41,3,3.4
		c-10.61,11.1-21.47,21.94-32.71,32.41c-3.62-2.2-7.18-4.52-10.88-6.57c-3.39-1.87-6.37-4.65-10.49-5.01
		C515.37,634.97,519.52,619.16,524.08,603.45z"/>
	<path class="st0" d="M835.3,167.85c-2.56,10.33-5.13,20.67-7.89,31.79c-7.98-7.67-15.48-14.71-22.76-21.96
		c-2.59-2.58-5.47-4.17-8.95-5.13c-9.8-2.69-19.54-5.57-28.32-8.09c6.85-7.43,13.8-14.99,20.76-22.54
		c9.51,4.48,18.11,10.57,27.42,15.38C822.2,160.72,827.98,165.72,835.3,167.85z"/>
	<path class="st2" d="M920.44,288.43c10.21,0.06,20.43,0.12,30.64,0.18c2.95,13.48,6.82,26.71,10.54,39.98
		c-8.73,5.29-17.28,10.91-26.78,14.81C930.03,325.07,925.24,306.75,920.44,288.43z"/>
	<path class="st2" d="M835.3,167.85c-7.32-2.13-13.11-7.13-19.74-10.55c-9.31-4.81-17.92-10.91-27.42-15.38
		c7.19-7.73,14.66-15.18,22.49-22.26c5.89,3.41,11.61,7.15,17.71,10.12c5.04,2.46,8.99,7.24,15.16,7.33
		C841.02,147.42,838.56,157.74,835.3,167.85z"/>
	<path class="st3" d="M897.39,537.78c3.32-8.48,8.66-15.87,13.1-23.72c4.12-7.28,7.61-15.01,13.15-21.44
		c7.88,7.44,15.54,15.1,22.85,23.1c-1.73,0.71-2.63,2.18-3.52,3.7c-5.07,8.73-10.52,17.25-14.99,26.33
		C917.65,543.6,907.49,540.81,897.39,537.78z"/>
	<path class="st0" d="M920.44,288.43c4.8,18.32,9.6,36.64,14.4,54.96c-5.89,5.76-13.7,8.42-21.85,12.71
		c0-9.44-0.22-18.89,0.08-28.32c0.18-5.5-1.27-10.2-4.06-14.88c-4.71-7.9-8.97-16.07-13.9-24.99
		C904.09,288.09,912.26,287.58,920.44,288.43z"/>
	<path class="st1" d="M961.62,328.59c-3.72-13.27-7.59-26.5-10.54-39.98c11.83,0.03,23.65,0.07,35.48,0.1
		c0.78,7.58,3.1,14.77,5.73,21.87c-8.17,5.22-16.45,10.26-25.15,14.58C965.2,326.11,963.45,327.43,961.62,328.59z"/>
	<path class="st4" d="M843.51,137.1c-6.17-0.09-10.12-4.87-15.16-7.33c-6.1-2.97-11.82-6.71-17.71-10.12
		c7.06-7.78,14.73-14.95,22.39-22.12c5.12,5.1,11.55,8.05,18.01,10.96C848.53,118.03,846.02,127.56,843.51,137.1z"/>
	<path class="st4" d="M927.98,545.75c4.47-9.08,9.92-17.6,14.99-26.33c0.89-1.53,1.79-2.99,3.52-3.7
		c6.17,5.92,12.44,11.74,18.06,18.22c-3.58,6.22-7.15,12.43-10.73,18.65C945.14,550.56,936.4,548.76,927.98,545.75z"/>
	<path class="st5" d="M511.64,650.9c4.12,0.35,7.1,3.14,10.49,5.01c3.71,2.04,7.26,4.37,10.88,6.57
		c-4.68,3.64-7.69,8.96-12.53,12.43c-4.7-1.71-8.13-5.95-13.33-6.67C508.06,662.31,509.75,656.57,511.64,650.9z"/>
	<path class="st6" d="M992.28,310.58c-2.63-7.1-4.95-14.28-5.73-21.87c5.11,0.01,10.23,0.02,15.34,0.02
		c0.51,4.89,2.58,9.36,3.83,14.05C1001.57,305.93,996.78,308.01,992.28,310.58z"/>
	<path class="st6" d="M851.04,108.49c-6.46-2.91-12.89-5.86-18.01-10.96c3.57-4.09,7.39-7.93,11.54-11.43
		c2.88,3.17,6.24,5.48,10.63,5.94C854.33,97.65,852.64,103.06,851.04,108.49z"/>
	<path class="st6" d="M953.82,552.59c3.58-6.22,7.15-12.43,10.73-18.65c4.09,3.96,8.81,7.34,11.63,12.49
		c-4.61,1.89-5.19,6.52-7.02,10.3C964.01,555.44,958.76,554.6,953.82,552.59z"/>
	<path class="st7" d="M507.14,668.23c5.2,0.71,8.63,4.96,13.33,6.67c-6.7,6.49-13.39,12.98-20.63,20
		C502.3,685.66,504.16,676.81,507.14,668.23z"/>
	<path class="st8" d="M1005.73,302.78c-1.26-4.69-3.32-9.16-3.83-14.05c8.91,0,17.82,0,26.73,0c0.13,0.26,0.27,0.52,0.4,0.77
		C1021.27,293.93,1013.5,298.36,1005.73,302.78z"/>
	<path class="st7" d="M969.15,556.73c1.83-3.78,2.41-8.41,7.02-10.3c6.66,4.19,11.03,10.71,16.32,16.65
		C984.71,560.96,976.93,558.84,969.15,556.73z"/>
	<path class="st8" d="M855.2,92.04c-4.39-0.46-7.75-2.77-10.63-5.94c5.43-5.12,10.85-10.23,16.35-15.41
		C859.64,77.86,857.3,84.92,855.2,92.04z"/>
	<path class="st0" d="M639.57,123.52c5.05,8.39,10.09,16.78,15.8,26.27c-11.38,0-21.52,0.1-31.66-0.06
		c-3.48-0.06-6.51,0.8-9.49,2.49c-8.17,4.63-16.44,9.08-24.61,13.72c-2.7,1.54-3.6,1.05-3.5-2.09c0.28-8.59,0.4-17.19,0.58-25.79
		c2.04-0.11,4.05,0.02,6.11-0.55c12.47-3.43,25.03-6.57,37.47-10.14C633.44,126.46,637.31,126.79,639.57,123.52z"/>
	<path class="st2" d="M639.57,123.52c-2.26,3.28-6.13,2.94-9.3,3.85c-12.43,3.58-24.99,6.71-37.47,10.14
		c-2.06,0.57-4.07,0.44-6.11,0.55c0.04-10.23,0.09-20.46,0.13-30.68c12.9-1.94,25.23-6.08,37.68-9.74
		C629.85,106.07,634.93,114.67,639.57,123.52z"/>
	<path class="st4" d="M624.5,97.64c-12.45,3.67-24.78,7.8-37.68,9.74c0.03-11.83,0.05-23.65,0.08-35.48
		c6.81-0.74,13.09-3.61,19.79-4.8C612.63,77.28,618.56,87.46,624.5,97.64z"/>
	<path class="st9" d="M606.69,67.11c-6.7,1.18-12.99,4.06-19.79,4.8c-0.05-0.79-0.15-1.59-0.15-2.38
		c-0.01-11.65-0.01-23.31,0.97-35.46C594.04,45.08,600.37,56.09,606.69,67.11z"/>
	<path class="st0" d="M420.9,423.8c8.59-5.14,17.17-10.27,26.84-16.05c0,4.98,0.35,9.03-0.06,13.01
		c-1.68,16.18,2.02,30.84,11.57,44.07c1.85,2.57,3.07,5.58,4.71,8.31c1.44,2.4,1.52,3.64-1.91,3.56
		c-9.25-0.21-18.49-0.22-27.74-0.31c-0.47-2.17-0.85-4.36-1.41-6.5C428.92,454.52,424.91,439.16,420.9,423.8z"/>
	<path class="st3" d="M420.9,423.8c4,15.36,8.02,30.72,12,46.09c0.56,2.14,0.94,4.33,1.41,6.5c-10.55-0.03-21.09-0.07-31.64-0.1
		c-1.94-12.4-5.38-24.39-9.57-36.19C402.14,434.27,411.46,428.93,420.9,423.8z"/>
	<path class="st4" d="M393.1,440.1c4.19,11.8,7.64,23.8,9.57,36.19c-10.23-0.04-20.45-0.08-30.68-0.11
		c0.1-7.37-2.76-14.05-4.85-20.91C375.57,449.83,384.2,444.73,393.1,440.1z"/>
	<path class="st6" d="M367.14,455.27c2.09,6.86,4.95,13.54,4.85,20.91c-5.75,0.22-11.5,0.41-17.25-0.14
		c0.5-4.34-1.72-8.23-2.06-12.43C357.51,460.83,362.32,458.05,367.14,455.27z"/>
	<path class="st7" d="M352.69,463.61c0.34,4.2,2.56,8.09,2.06,12.43c-7.37,0-14.74,0-22.1,0c-0.12-0.28-0.23-0.55-0.35-0.83
		C339.09,471.34,345.89,467.47,352.69,463.61z"/>
	<path class="st10" d="M681.15,205.06c98.77,0.91,177.72,80.56,176.84,178.41c-0.89,98.51-81.05,177.3-179.44,176.36
		c-98.27-0.93-176.27-81.44-175.26-180.9C504.26,283.05,584.95,204.17,681.15,205.06z M512.93,382.57
		c0.74,93.25,74.71,166.85,167.55,167.46c42.68,0.28,80.8-14.61,112.59-43.64c36.25-33.11,54.8-74.99,55.03-123.65
		c0.2-42.04-13.95-79.97-42.5-111.56c-32.5-35.97-73.37-55.49-121.7-56.18C587.16,213.62,513.48,289.9,512.93,382.57z"/>
	<path class="st0" d="M464.99,227.35c9.56,2.45,19.09,5.02,28.7,7.28c3.36,0.79,3.63,1.64,1.24,4.05
		c-6.53,6.56-12.86,13.34-19.43,19.86c-2.37,2.35-3.79,5.01-4.67,8.16c-2.78,9.96-5.65,19.89-8.14,28.61
		c-7.83-7.17-15.88-14.53-23.93-21.9c0.45-0.43,1.02-0.79,1.33-1.31c5.84-10,11.82-19.92,17.39-30.07
		C460.11,237.23,463.78,232.91,464.99,227.35z"/>
	<path class="st3" d="M464.99,227.35c-1.21,5.55-4.88,9.88-7.52,14.69c-5.57,10.15-11.55,20.07-17.39,30.07
		c-0.3,0.52-0.88,0.88-1.33,1.31c-7.84-7.41-15.46-15.03-22.73-22.99c0.35-0.87,0.6-1.79,1.05-2.59
		c5.47-9.62,10.97-19.21,16.46-28.82C444.02,221.8,454.51,224.58,464.99,227.35z"/>
	<path class="st4" d="M433.53,219.03c-5.49,9.6-10.99,19.2-16.46,28.82c-0.46,0.8-0.71,1.72-1.05,2.59
		c-7.62-7.11-14.98-14.49-22-22.2c1.6-2.56,3.14-5.16,4.82-7.67c1.99-2.99,2.86-6.77,6.17-8.84
		C414.7,213.43,424.02,216.61,433.53,219.03z"/>
	<path class="st9" d="M405,211.73c-3.31,2.07-4.18,5.85-6.17,8.84c-1.67,2.51-3.22,5.11-4.82,7.67
		c-8.39-8.65-16.77-17.29-25.92-26.73C380.91,205.06,392.96,208.39,405,211.73z"/>
	<path class="st11" d="M728.4,653c-7.3-12.25-14.6-24.5-22.77-38.22c11.79,0,22.22-0.08,32.66,0.05c3.15,0.04,5.9-0.69,8.62-2.22
		c8.98-5.08,18.03-10.04,27.62-15.36c0,15.1,0,29.63,0,44.15c-1.25,0.17-2.54,0.21-3.75,0.52C756.64,645.59,742.53,649.3,728.4,653z
		"/>
	<path class="st1" d="M728.4,653c14.12-3.7,28.24-7.41,42.37-11.07c1.21-0.32,2.5-0.36,3.75-0.52c-0.05,15.02-0.11,30.04-0.16,45.07
		c-7.81,1.4-15.37,3.76-23,5.85C743.35,679.43,735.68,666.33,728.4,653z"/>
	<path class="st6" d="M751.37,692.32c7.63-2.1,15.19-4.46,23-5.85c-0.04,6.39-0.08,12.78-0.12,19.17c-4.74-0.2-8.94,2.03-13.42,3.01
		C757.68,703.21,754.52,697.77,751.37,692.32z"/>
	<path class="st7" d="M760.83,708.65c4.48-0.99,8.68-3.21,13.42-3.01c0,8.22,0,16.45,0,24.67c-0.25,0.17-0.5,0.34-0.75,0.52
		C769.27,723.43,765.05,716.04,760.83,708.65z"/>
	<path class="st12" d="M512.93,382.57c0.55-92.67,74.23-168.96,170.96-167.57c48.33,0.69,89.2,20.22,121.7,56.18
		c28.55,31.6,42.7,69.52,42.5,111.56c-0.23,48.66-18.78,90.54-55.03,123.65c-31.78,29.02-69.9,43.92-112.59,43.64
		C587.64,549.42,513.67,475.82,512.93,382.57z M519.64,382.48c-1.03,88.72,71.47,158.32,153.95,161.06
		c97.3,3.24,165.4-72.81,168.05-154.75c3.12-96.49-72.69-163.47-152.46-167.41C592.67,216.62,517.89,295.23,519.64,382.48z"/>
	<path class="st13" d="M519.64,382.48c-1.75-87.25,73.02-165.86,169.55-161.09c79.77,3.94,155.58,70.92,152.46,167.41
		C839,470.74,770.89,546.79,673.6,543.55C591.11,540.8,518.62,471.21,519.64,382.48z M525.39,382.45
		c0.37,86.67,68.39,154.12,152.61,155.12c89.32,1.06,157.51-68.41,157.66-154.97c0.15-86.95-67.77-152.66-149.96-155.24
		C594.61,224.51,525.27,297.23,525.39,382.45z"/>
	<path class="st8" d="M525.39,382.45c-0.12-85.22,69.21-157.94,160.32-155.08c82.19,2.58,150.12,68.29,149.96,155.24
		c-0.15,86.56-68.34,156.04-157.66,154.97C593.78,536.58,525.76,469.12,525.39,382.45z M534.02,382.25
		c0.36,81.89,65.4,146.72,146.21,146.63c83.24-0.09,146.83-65.29,146.75-146.48c-0.08-82.91-65.45-144.88-143.52-146.37
		C599.5,234.43,534.37,301.65,534.02,382.25z"/>
	<path class="st7" d="M534.02,382.25c0.35-80.6,65.47-147.81,149.45-146.22c78.07,1.49,143.44,63.46,143.52,146.37
		c0.08,81.19-63.51,146.39-146.75,146.48C599.42,528.97,534.38,464.14,534.02,382.25z M538.82,382.48
		c0.38,78.72,63.29,141.61,141.06,141.63c80.52,0.02,142.43-62.92,142.31-141.7c-0.11-80.26-63.06-139.88-138.64-141.59
		C602.34,238.99,538.94,304.6,538.82,382.48z"/>
	<path class="st9" d="M538.82,382.48c0.13-77.88,63.52-143.48,144.73-141.65c75.58,1.7,138.53,61.33,138.64,141.59
		c0.11,78.78-61.79,141.72-142.31,141.7C602.11,524.09,539.2,461.2,538.82,382.48z M680.52,517.82
		c75.42,0.52,132.46-60.49,135.35-128.1c3.53-82.81-60.62-138.35-124.98-142.38c-84.73-5.31-145.58,59.82-146.1,134.97
		c-0.25,35.59,12.38,67.27,36.89,93.09C608.29,503.45,641.55,517.76,680.52,517.82z"/>
	<path class="st6" d="M680.52,517.82c-38.97-0.07-72.23-14.37-98.85-42.42c-24.51-25.82-37.14-57.5-36.89-93.09
		c0.53-75.15,61.38-140.28,146.1-134.97c64.36,4.03,128.51,59.57,124.98,142.38C812.98,457.34,755.94,518.34,680.52,517.82z
		 M680.04,507.18c69.62,1.45,121.75-55.45,125.34-116.06c4.65-78.56-57.71-133.68-123.18-134
		c-71.51-0.35-125.37,55.64-126.96,122.55C553.54,451.08,612.6,508.71,680.04,507.18z"/>
	<path class="st5" d="M680.04,507.18c-67.44,1.53-126.5-56.1-124.81-127.51c1.59-66.91,55.45-122.9,126.96-122.55
		c65.47,0.32,127.83,55.44,123.18,134C801.79,451.73,749.67,508.63,680.04,507.18z M562.79,382.25
		c-0.12,65.87,52.72,117.44,116.18,118.03c66.85,0.62,119.3-52.41,119.39-117.45c0.09-66.23-51.6-115.95-113.66-118.14
		C615.57,262.27,562.26,318.82,562.79,382.25z"/>
	<path class="st4" d="M562.79,382.25c-0.53-63.43,52.79-119.99,121.91-117.55c62.06,2.18,113.75,51.9,113.66,118.14
		c-0.09,65.04-52.54,118.07-119.39,117.45C615.51,499.69,562.66,448.12,562.79,382.25z M776.59,382.3
		c1.64-52.98-42.98-96.11-95.23-96.53c-54.64-0.44-96.54,43.47-97.44,94.28c-1.02,57.71,44.36,99.01,96.44,99.07
		C735.48,479.18,778.24,434.43,776.59,382.3z"/>
	<path class="st1" d="M776.59,382.3c1.66,52.13-41.11,96.88-96.24,96.82c-52.08-0.06-97.46-41.36-96.44-99.07
		c0.9-50.81,42.8-94.72,97.44-94.28C733.6,286.2,778.23,329.33,776.59,382.3z M680.56,455.41c40.24,0.27,72.01-32.41,72.93-70.27
		c1.08-44.35-32.4-76.01-73.29-75.92c-40.92,0.09-72.56,31.29-72.91,73.11C606.95,422.78,639.29,455.21,680.56,455.41z"/>
	<path class="st3" d="M680.56,455.41c-41.27-0.2-73.61-32.62-73.27-73.09c0.35-41.82,31.99-73.02,72.91-73.11
		c40.89-0.09,74.37,31.58,73.29,75.92C752.56,423,720.8,455.67,680.56,455.41z M634.69,382.36c0.02,25.2,19.93,45.87,45.32,45.99
		c25.1,0.12,46.47-19.33,46.37-46.09c-0.1-23.98-17.61-45.27-46.1-45.66C655.58,336.25,634.7,357.51,634.69,382.36z"/>
	<path class="st11" d="M634.69,382.36c0-24.84,20.89-46.1,45.58-45.76c28.49,0.39,46.01,21.68,46.1,45.66
		c0.11,26.77-21.26,46.22-46.37,46.09C654.63,428.23,634.71,407.56,634.69,382.36z"/>
</g>
</svg>
